<svg id="SvgjsSvg1011" width="288" height="288" xmlns="http://www.w3.org/2000/svg" version="1.1" xmlns:xlink="http://www.w3.org/1999/xlink" xmlns:svgjs="http://svgjs.com/svgjs"><defs id="SvgjsDefs1012"></defs><g id="SvgjsG1013" transform="matrix(0.916700005531311,0,0,0.916700005531311,11.995199203491211,11.995199203491211)"><svg xmlns="http://www.w3.org/2000/svg" data-name="Layer 1" viewBox="0 0 32 32" width="288" height="288"><rect width="27" height="28" x="2.5" y="3.5" fill="#53a0f0" rx="2" ry="2" class="color4ebaea svgShape"></rect><path fill="#53a0f0" d="M9.19511.76451H13.5556a0,0,0,0,1,0,0v8.721a0,0,0,0,1,0,0H10.19511a1,1,0,0,1-1-1V.76451A0,0,0,0,1,9.19511.76451Z" transform="rotate(-45 11.375 5.125)" class="color2e99d4 svgShape"></path><path fill="#53a0f0" d="M18.4444.76451h4.36049a0,0,0,0,1,0,0v7.721a1,1,0,0,1-1,1H18.4444a0,0,0,0,1,0,0V.76451a0,0,0,0,1,0,0Z" transform="rotate(45 20.625 5.125)" class="color2e99d4 svgShape"></path><polygon fill="#53a0f0" points="9.834 .5 22.166 .5 16 6.667 9.834 .5" class="color4ebaea svgShape"></polygon><path fill="#53a0f0" d="M26.5,14.5v4a3,3,0,0,1-6,0v-4a1.003,1.003,0,0,1,1-1h4A1.003,1.003,0,0,1,26.5,14.5Z" class="color2e99d4 svgShape"></path><path d="M16,27.5a.5.5,0,1,0,.5.5A.5.5,0,0,0,16,27.5ZM27.5,3H25.37347L22.51953.14648a.46716.46716,0,0,0-.054-.03583A.45611.45611,0,0,0,22.41052.074.49568.49568,0,0,0,22.166,0H9.834a.49568.49568,0,0,0-.24451.074.45611.45611,0,0,0-.05505.03662.46716.46716,0,0,0-.054.03583L6.62653,3H4.5A2.50263,2.50263,0,0,0,2,5.5v24A2.50263,2.50263,0,0,0,4.5,32h23A2.50263,2.50263,0,0,0,30,29.5V5.5A2.50263,2.50263,0,0,0,27.5,3ZM20.959,1,16,5.95947,11.041,1ZM14,31H4.5A1.50164,1.50164,0,0,1,3,29.5V5.5A1.50164,1.50164,0,0,1,4.5,4H6.45947l5.397,5.39648a1.50182,1.50182,0,0,0,2.12109,0L14,9.374Zm.13214-23.17242-.86163.86188a.5007.5007,0,0,1-.707,0L7.457,3.5835,9.834,1.207,15.293,6.6665,14.16742,7.79236A.48011.48011,0,0,0,14.13214,7.82758ZM17,31H15V8.37378L16,7.3736l1,1.00018Zm.83258-23.20764L16.707,6.6665,22.166,1.207,24.543,3.5835l-5.10645,5.106a.49982.49982,0,0,1-.707,0l-.86163-.86188A.48011.48011,0,0,0,17.83258,7.79236ZM29,29.5A1.50164,1.50164,0,0,1,27.5,31H18V9.374l.02246.02246a1.50182,1.50182,0,0,0,2.12109,0L25.54053,4H27.5A1.50164,1.50164,0,0,1,29,5.5Zm-13-14a.5.5,0,1,0,.5.5A.5.5,0,0,0,16,15.5ZM15.5,12a.5.5,0,1,0,.5-.5A.5.5,0,0,0,15.5,12Zm10,1h-4A1.50164,1.50164,0,0,0,20,14.5v4a3.5,3.5,0,0,0,7,0v-4A1.50164,1.50164,0,0,0,25.5,13Zm.5,5.5a2.5,2.5,0,0,1-5,0V16h5ZM26,15H21v-.5a.50065.50065,0,0,1,.5-.5h4a.50065.50065,0,0,1,.5.5ZM16,19.5a.5.5,0,1,0,.5.5A.5.5,0,0,0,16,19.5Zm0,4a.5.5,0,1,0,.5.5A.5.5,0,0,0,16,23.5Z" fill="#454343" class="color000 svgShape"></path></svg></g></svg>