<svg id="SvgjsSvg1263" width="288" height="288" xmlns="http://www.w3.org/2000/svg" version="1.1" xmlns:xlink="http://www.w3.org/1999/xlink" xmlns:svgjs="http://svgjs.com/svgjs"><defs id="SvgjsDefs1264"></defs><g id="SvgjsG1265"><svg xmlns="http://www.w3.org/2000/svg" width="288" height="288" viewBox="0 0 32 32"><g transform="translate(-715.5 -1115.862)" fill="#454343" class="color000 svgShape"><path fill="#53a0f0" d="m 723.99992,1116.8622 c -1.38501,0 -2.5,1.115 -2.5,2.5 l 0,15 0,9 c 0,1 0.49827,2.5 2.5,2.5 l 15.97097,0 c 1.0273,0 2.5,-0.5 2.5,-2.5 l 0,-9 0,-15 c 0,-1.385 -1.11499,-2.5 -2.5,-2.5 z" class="colore9eded svgShape"></path><rect width="2" height="2" x="724.498" y="1145.862" fill="#415262" ry="0" class="color34485c svgShape"></rect><rect width="2" height="2" x="737.498" y="1145.862" fill="#415262" ry="0" class="color34485c svgShape"></rect><circle cx="731.998" cy="1120.362" r="1.5" fill="#415262" class="color34485c svgShape"></circle><circle cx="724.498" cy="1123.862" r=".5" fill="#415262" class="color34485c svgShape"></circle><circle cx="728.498" cy="1123.862" r=".5" fill="#415262" class="color34485c svgShape"></circle><circle cx="726.498" cy="1123.862" r=".5" fill="#415262" class="color34485c svgShape"></circle><rect width="4" height="3" x="724.498" y="1118.862" fill="#415262" class="color34485c svgShape"></rect><circle cx="731.998" cy="1134.362" r="6.5" fill="#95cfe1" class="color78c8f0 svgShape"></circle><path fill="none" stroke="#4bbfeb" stroke-linecap="round" stroke-linejoin="round" d="m 735.49814,1132.6908 0,3.0236" class="colorStroke4bbfeb svgStroke"></path><path fill="none" stroke="#34485c" d="m 721.52591,1125.8622 20.94498,0" class="colorStroke34485c svgStroke"></path><path fill="#a2c8eb" d="m 721.5,122 0,1 c 0,1 0.49827,2.5 2.5,2.5 l 15.9707,0 c 1.0273,0 2.5,-0.5 2.5,-2.5 l 0,-1 c 0,2 -1.4727,2.5 -2.5,2.5 L 724,124.5 c -2.00173,0 -2.5,-1.5 -2.5,-2.5 z" transform="translate(0 1020.362)" class="colorcad1d8 svgShape"></path><path fill="#415262" fill-rule="evenodd" d="m 727.49819,1145.8622 0,-1.5 c 0,-1 0.5,-1.5 1.5,-1.5 l 0.76309,0 2.2631,0 2.26309,0 0.71072,0 c 1,0 1.55238,0.5 1.55238,1.5 l 0,1.5" class="color34485c svgShape"></path><path fill="#6ac3f4" d="m 738.47461,113.4707 a 6.4999865,6.4999865 0 0 1 -6.47656,6.0293 6.4999865,6.4999865 0 0 1 -6.47657,-5.97266 6.4999865,6.4999865 0 0 0 -0.0234,0.47266 6.4999865,6.4999865 0 0 0 6.5,6.5 6.4999865,6.4999865 0 0 0 6.5,-6.5 6.4999865,6.4999865 0 0 0 -0.0234,-0.5293 z" transform="translate(0 1020.362)" class="color4bbfeb svgShape"></path><path fill="#3a4b59" fill-rule="evenodd" d="m 727.49805,124.5 0,1 9.05273,0 0,-1 -9.05273,0 z" transform="translate(0 1020.362)" class="color2b4255 svgShape"></path><path fill="#3a4b59" d="M730.58594 99.5a1.5000001 1.5000001 0 0 0-.0879.5 1.5000001 1.5000001 0 0 0 1.5 1.5 1.5000001 1.5000001 0 0 0 1.5-1.5 1.5000001 1.5000001 0 0 0-.0879-.5 1.5000001 1.5000001 0 0 1-1.41211 1 1.5000001 1.5000001 0 0 1-1.41211-1zm-6.08789 1l0 1 4 0 0-1-4 0zM724.49805 126.5l0 1 2 0 0-1-2 0zm13 0l0 1 2 0 0-1-2 0z" transform="translate(0 1020.362)" class="color2b4255 svgShape"></path></g></svg></g></svg>