<svg id="SvgjsSvg1001" width="288" height="288" xmlns="http://www.w3.org/2000/svg" version="1.1" xmlns:xlink="http://www.w3.org/1999/xlink" xmlns:svgjs="http://svgjs.com/svgjs"><defs id="SvgjsDefs1002"></defs><g id="SvgjsG1008" transform="matrix(0.916700005531311,0,0,0.916700005531311,11.96949291229248,11.995199203491211)"><svg xmlns="http://www.w3.org/2000/svg" id="Layer_1" enable-background="new 0 0 64 64" viewBox="0 0 64 64" width="288" height="288"><path fill="#60a4e9" d="M49.5,50.3c0.2,0.7,0.4,1.5,0.3,2.3C49.1,59,43.7,64,37.2,64H20.5c-6.6,0-12-5-12.6-11.4
		c-0.1-0.8,0-1.6,0.3-2.3c2.1-6.2,2.1-12.4,0-18.6C8,31,7.9,30.2,7.9,29.4C8.6,23,14,18,20.5,18h16.7c6.6,0,12,5,12.6,11.4
		c0.1,0.8,0,1.6-0.3,2.3C47.4,37.9,47.4,44.1,49.5,50.3z" class="colord73d3d svgShape"></path><rect width="13" height="9.4" x="22.3" y="8.7" fill="#a4bcd7" class="colordce0e0 svgShape"></rect><path fill="#798d9b" d="M33.2,8.7h-8.7V4.3c0-2.4,1.9-4.3,4.3-4.3h0c2.4,0,4.3,1.9,4.3,4.3V8.7z" class="color798d9b svgShape"></path><rect width="2.7" height="2.7" x="30.5" y="4.3" fill="#a4bcd7" class="colordce0e0 svgShape"></rect><path fill="#83b9f2" d="M46.8 2.6c.5-.1 1-.3 1.4-.4.2 0 .5-.2.7-.1.2.1.5.2.7.5 0 0 0 .1 0 .1-.2.3-.5.4-.7.4-.2.1-.5-.1-.7-.1-.5-.1-1-.2-1.4-.4C46.8 2.7 46.7 2.7 46.8 2.6 46.8 2.7 46.8 2.6 46.8 2.6zM46.8 6.3c.5-.1 1-.3 1.4-.3.2 0 .5-.2.7-.1.2.1.5.2.7.4 0 0 0 .1 0 .1-.2.3-.5.4-.7.5-.2.1-.5-.1-.7-.1-.5-.1-1-.2-1.4-.4C46.8 6.4 46.7 6.3 46.8 6.3 46.8 6.3 46.8 6.3 46.8 6.3zM46.8 9.9c.5-.1 1-.3 1.4-.4.2 0 .5-.2.7-.1.2.1.5.2.7.5 0 0 0 .1 0 .1-.2.3-.5.4-.7.4-.2.1-.5-.1-.7-.1-.5-.1-1-.2-1.4-.4C46.8 10 46.7 10 46.8 9.9 46.8 9.9 46.8 9.9 46.8 9.9zM37.2 6.3c.5-.1 1-.3 1.4-.3.2 0 .5-.2.7-.1C39.5 5.9 39.8 6 40 6.3c0 0 0 .1 0 .1-.2.3-.5.4-.7.5-.2.1-.5-.1-.7-.1-.5-.1-1-.2-1.4-.4C37.1 6.4 37.1 6.3 37.2 6.3 37.1 6.3 37.1 6.3 37.2 6.3zM41.8 4.4c.5-.1 1-.3 1.4-.4.2 0 .5-.2.7-.1.2.1.5.2.7.4 0 0 0 .1 0 .1-.2.3-.5.4-.7.5-.2.1-.5-.1-.7-.1-.5-.1-1-.2-1.4-.4C41.8 4.5 41.8 4.4 41.8 4.4 41.8 4.4 41.8 4.4 41.8 4.4zM41.8 8.2c.5-.1 1-.3 1.4-.4.2 0 .5-.2.7-.1.2.1.5.2.7.5 0 0 0 .1 0 .1-.2.3-.5.4-.7.4-.2.1-.5-.1-.7-.1-.5-.1-1-.2-1.4-.3C41.8 8.3 41.8 8.2 41.8 8.2 41.8 8.2 41.8 8.2 41.8 8.2z" class="coloreca8a4 svgShape"></path><g fill="#070707" class="color000 svgShape"><path fill="#83b9f2" d="M53.2 4.4c.5-.1 1-.3 1.4-.4.2 0 .5-.2.7-.1.2.1.5.2.7.4 0 0 0 .1 0 .1-.2.3-.5.4-.7.5-.2.1-.5-.1-.7-.1-.5-.1-1-.2-1.4-.4C53.2 4.5 53.2 4.4 53.2 4.4 53.2 4.4 53.2 4.4 53.2 4.4zM53.2 8.2c.5-.1 1-.3 1.4-.4.2 0 .5-.2.7-.1.2.1.5.2.7.5 0 0 0 .1 0 .1-.2.3-.5.4-.7.4-.2.1-.5-.1-.7-.1-.5-.1-1-.2-1.4-.3C53.2 8.3 53.2 8.2 53.2 8.2 53.2 8.2 53.2 8.2 53.2 8.2z" class="coloreca8a4 svgShape"></path></g><g fill="#070707" class="color000 svgShape"><path fill="#83b9f2" d="M53.2,0.7c0.5-0.1,1-0.3,1.4-0.4c0.2,0,0.5-0.2,0.7-0.1c0.2,0.1,0.5,0.2,0.7,0.5c0,0,0,0.1,0,0.1
					c-0.2,0.3-0.5,0.4-0.7,0.5c-0.2,0.1-0.5-0.1-0.7-0.1C54.2,1.1,53.7,1,53.2,0.7C53.2,0.8,53.2,0.8,53.2,0.7
					C53.2,0.7,53.2,0.7,53.2,0.7z" class="coloreca8a4 svgShape"></path></g><g fill="#070707" class="color000 svgShape"><path fill="#83b9f2" d="M53.2,11.8c0.5-0.1,1-0.3,1.4-0.3c0.2,0,0.5-0.2,0.7-0.1c0.2,0.1,0.5,0.2,0.7,0.4c0,0,0,0.1,0,0.1
					c-0.2,0.3-0.5,0.4-0.7,0.5c-0.2,0.1-0.5-0.1-0.7-0.1c-0.5-0.1-1-0.2-1.4-0.4C53.2,11.9,53.2,11.9,53.2,11.8
					C53.2,11.8,53.2,11.8,53.2,11.8z" class="coloreca8a4 svgShape"></path></g><circle cx="28.9" cy="41" r="12.4" fill="#83b9f2" class="coloreca8a4 svgShape"></circle><path fill="#60a4e9" d="M35.6,39.8c0,0.9-0.3,1.8-1,2.4l-0.9,0.9L28.9,48l-5.7-5.7c-0.7-0.7-1-1.5-1-2.4c0-0.9,0.3-1.8,1-2.4
		c1.3-1.3,3.5-1.3,4.8,0l0.9,0.9l0.9-0.9c1.3-1.3,3.5-1.3,4.8,0C35.3,38.1,35.6,39,35.6,39.8z" class="colord73d3d svgShape"></path></svg></g></svg>